<?xml version="1.0" encoding="UTF-8"?>
<svg width="30px" height="30px" viewBox="0 0 30 30" version="1.1" xmlns="http://www.w3.org/2000/svg" xmlns:xlink="http://www.w3.org/1999/xlink">
    <!-- Generator: Sketch 52.5 (67469) - http://www.bohemiancoding.com/sketch -->
    <title>icons8-checked</title>
    <desc>Created with Sketch.</desc>
    <g id="Page-1" stroke="none" stroke-width="1" fill="none" fill-rule="evenodd">
        <g id="iPhone-SE" transform="translate(-15.000000, -1562.000000)" fill="#0CA4A5">
            <path d="M30.0009704,1562 C21.7270492,1562 15,1568.72705 15,1577.00097 C15,1585.2723 21.7270492,1592 30.0009704,1592 C38.2723038,1592 45,1585.2723 45,1577.00097 C45,1574.02627 44.1253154,1571.25147 42.629553,1568.9192 L41.7348127,1569.97309 C42.9730866,1572.03235 43.6957366,1574.42867 43.6957366,1577.00097 C43.6957366,1584.55224 37.5522417,1590.69574 30.0009704,1590.69574 C22.4496992,1590.69574 16.3036165,1584.55224 16.3036165,1577.00097 C16.3036165,1569.4497 22.4496992,1563.30362 30.0009704,1563.30362 C33.5495245,1563.30362 36.7791292,1564.67581 39.2149188,1566.89746 L40.06696,1565.88885 C37.4034418,1563.47571 33.8704147,1562 30.0009704,1562 Z M41.8913761,1565.75235 L29.2906127,1580.62263 L23.9888077,1575.67406 L23.0992431,1576.62703 L29.4044769,1582.50786 L42.8896293,1566.59662 L41.8913761,1565.75235 Z" id="icons8-checked"></path>
        </g>
    </g>
</svg>