<svg version="1" xmlns="http://www.w3.org/2000/svg" width="432" height="432" viewBox="0 0 324.000000 324.000000"><path d="M80.5 114.5c-26.2 7.2-39.2 36.2-27.5 61.3 5.5 11.9 18.8 21.8 31.5 23.7 25.3 3.7 46.4-8.9 52.5-31.4 6.3-23.3-7.7-47.6-31-53.9-5.4-1.4-19.9-1.3-25.5.3zm24 26.9c11 8.4 9.6 25.8-2.6 31.8-10.1 5-21.5.6-25.5-9.9-3.3-8.5.5-19 8.3-23.3 5.5-3 15-2.3 19.8 1.4zM216 114.6c-14.8 3.9-25.2 13.8-29.4 27.8-1.7 5.7-2 19.1-.5 25.2 4.7 19.1 19.8 30.5 39.6 29.9 10.8-.3 12.5-.7 18.5-4.4l4.8-3-.6 3.6c-.9 5.4-1.8 7.5-5 10.7-3.9 3.8-8.2 5.5-15.2 6-8.1.5-14.8-1-23.6-5.3l-7.4-3.6-4.6 9.3c-2.5 5.1-4.6 9.4-4.6 9.7 0 .9 7.5 5.1 13.1 7.4 12.6 5 28.3 6.3 39.9 3.3 12.1-3.1 23.3-11.5 28-20.9 4.6-9.3 4.9-12.3 5-55V115h-24V122.3l-2.2-1.9c-7.7-6.5-20.5-8.9-31.8-5.8zm21.6 24.5c6.5 2 11.5 10.2 11 18-1 14.2-14.5 22-27.3 15.8-9.3-4.5-12.8-18-7-26.8 5.4-8.1 12.8-10.3 23.3-7zM154.8 121.4c-8.2 5.6-9.6 14.4-3.4 21.4 3.1 3.6 6.6 5 11.5 4.6 5.5-.4 9-2.8 11.7-8.2 1.9-3.5 2-4.9 1.2-8.4-.9-4.4-3.7-8.1-7.3-10.1-3.6-1.9-10.3-1.6-13.7.7zM155.3 173.6c-6.8 3.4-9.4 11.7-6 18.6 5.2 10.2 19.3 10.7 25.1.9 3.3-5.8 1.3-15.1-4-18.6-3.8-2.4-11.3-2.9-15.1-.9z"/></svg>