<?xml version="1.0" encoding="UTF-8"?>
<svg width="679px" height="149px" viewBox="0 0 679 149" version="1.1" xmlns="http://www.w3.org/2000/svg" xmlns:xlink="http://www.w3.org/1999/xlink">
    <!-- Generator: Sketch 52.5 (67469) - http://www.bohemiancoding.com/sketch -->
    <title>out:grow</title>
    <desc>Created with Sketch.</desc>
    <g id="Page-1" stroke="none" stroke-width="1" fill="none" fill-rule="evenodd">
        <g id="Logo-Inv" transform="translate(-16.000000, -80.000000)" fill="#FAFAFA">
            <path d="M61.370588,195.25 C34.220588,195.25 16.370588,175.75 16.370588,151.6 C16.370588,127.6 34.220588,107.8 61.370588,107.8 C88.670588,107.8 106.520588,127.6 106.520588,151.6 C106.520588,175.75 88.670588,195.25 61.370588,195.25 Z M61.370588,170.5 C71.870588,170.5 80.120588,162.25 80.120588,151.45 C80.120588,140.95 71.870588,132.7 61.370588,132.7 C51.020588,132.7 42.770588,140.95 42.770588,151.45 C42.770588,162.25 51.020588,170.5 61.370588,170.5 Z M154.502941,195.1 C130.052941,195.1 114.752941,181.6 114.752941,156.85 L114.752941,110.2 L141.302941,110.2 L141.302941,157.15 C141.302941,165.1 146.252941,170.95 154.502941,170.95 C162.902941,170.95 167.852941,165.1 167.852941,157.15 L167.852941,110.2 L194.402941,110.2 L194.402941,156.85 C194.402941,181.6 179.102941,195.1 154.502941,195.1 Z M263.835294,167.2 L270.885294,188.35 C263.985294,192.4 253.635294,195.1 244.485294,195.1 C224.685294,195.1 213.735294,184 213.735294,160.9 L213.735294,132.1 L201.135294,132.1 L201.135294,110.2 L214.035294,110.2 L214.035294,80.8 L240.285294,80.8 L240.285294,110.2 L266.235294,110.2 L266.235294,132.1 L240.285294,132.1 L240.285294,157.75 C240.285294,167.05 244.035294,170.95 250.785294,170.95 C256.035294,170.95 260.085294,169.15 263.835294,167.2 Z M289.917647,142.75 C281.817647,142.75 275.217647,136.6 275.217647,128.35 C275.217647,120.4 281.817647,114.25 289.917647,114.25 C297.567647,114.25 304.017647,120.4 304.017647,128.35 C304.017647,136.6 297.567647,142.75 289.917647,142.75 Z M289.917647,195.4 C281.817647,195.4 275.217647,189.25 275.217647,181 C275.217647,173.05 281.817647,166.9 289.917647,166.9 C297.567647,166.9 304.017647,173.05 304.017647,181 C304.017647,189.25 297.567647,195.4 289.917647,195.4 Z M377.8,110.2 L401.65,110.2 L401.65,185.05 C401.65,211.9 381.1,228.1 354.55,228.1 C339.7,228.1 325.3,223 315.4,215.65 L325,196.3 C332.35,201.1 342.4,205.75 353.5,205.75 C369.1,205.75 376.45,197.05 376.45,186.7 L376.45,184.9 C371.2,189.85 363.7,193.15 353.35,193.15 C328.45,193.15 312.4,175.45 312.4,150.85 C312.4,125.05 330.85,108.1 354.55,108.1 C364.6,108.1 372.25,111.85 377.8,117.1 L377.8,110.2 Z M357.85,170.35 C368.65,170.35 376.6,162.1 376.6,151.15 C376.6,140.35 368.65,132.4 357.85,132.4 C347.05,132.4 339.1,140.2 339.1,151.15 C339.1,162.25 347.05,170.35 357.85,170.35 Z M414.682353,193 L414.682353,110.2 L440.032353,110.2 L440.032353,120.4 C445.432353,111.85 453.532353,107.95 462.082353,107.95 C465.232353,107.95 469.132353,108.7 472.432353,110.2 L470.332353,135.4 C466.732353,134.2 462.982353,133.45 459.382353,133.45 C449.032353,133.45 441.082353,139.45 441.082353,157.3 L441.082353,193 L414.682353,193 Z M516.964706,195.25 C489.814706,195.25 471.964706,175.75 471.964706,151.6 C471.964706,127.6 489.814706,107.8 516.964706,107.8 C544.264706,107.8 562.114706,127.6 562.114706,151.6 C562.114706,175.75 544.264706,195.25 516.964706,195.25 Z M516.964706,170.5 C527.464706,170.5 535.714706,162.25 535.714706,151.45 C535.714706,140.95 527.464706,132.7 516.964706,132.7 C506.614706,132.7 498.364706,140.95 498.364706,151.45 C498.364706,162.25 506.614706,170.5 516.964706,170.5 Z M588.647059,192.85 L560.447059,110.2 L588.347059,110.2 L602.597059,158.35 L618.347059,110.2 L636.947059,110.2 L652.997059,158.35 L667.097059,110.2 L694.997059,110.2 L666.797059,192.85 L643.247059,192.85 L627.647059,148.9 L612.197059,192.85 L588.647059,192.85 Z" id="out:grow"></path>
        </g>
    </g>
</svg>